PathFileType	4	(X/Y/Z)	TVC_26_BWA6_walk_RCNL2025.trc
DataRate	CameraRate	NumFrames	NumMarkers	Units	OrigDataRate	OrigDataStartFrame	OrigNumFrames
100	100	10	27	mm	100	515	588
Frame#	Time	R_Shoulder			L_Shoulder			C7			J_Notch			R_Elbow			L_Elbow			R_Wrist			L_Wrist			R_Asis			L_Asis			R_Psis			L_Psis			Sacral			Thoracic			Sternum			R_Thigh_Lateral			R_Knee_Lateral			R_Shank_Lateral			R_Ankle_Lateral			R_Heel			R_Toe			L_Thigh_Lateral			L_Knee_Lateral			L_Shank_Lateral			L_Ankle_Lateral			L_Heel			L_Toe		
		X1	Y1	Z1	X2	Y2	Z2	X3	Y3	Z3	X4	Y4	Z4	X5	Y5	Z5	X6	Y6	Z6	X7	Y7	Z7	X8	Y8	Z8	X9	Y9	Z9	X10	Y10	Z10	X11	Y11	Z11	X12	Y12	Z12	X13	Y13	Z13	X14	Y14	Z14	X15	Y15	Z15	X16	Y16	Z16	X17	Y17	Z17	X18	Y18	Z18	X19	Y19	Z19	X20	Y20	Z20	X21	Y21	Z21	X22	Y22	Z22	X23	Y23	Z23	X24	Y24	Z24	X25	Y25	Z25	X26	Y26	Z26	X27	Y27	Z27
515	5.14000000	1581.799683	1365.753540	127.856316	1586.891357	1369.769531	-188.333847	1504.383057	1396.782104	-21.534636	1657.816650	1311.481445	-17.205454	1839.730957	1154.225098	205.904892	1567.803345	1041.470459	-294.149414	2041.419922	1168.715027	122.449924	1674.391113	852.406586	-233.418106	1664.637085	964.674561	154.396805	1709.219727	957.935608	-133.214828	1468.635620	947.609741	47.648006	1492.545532	937.327454	-95.155098	1480.590576	942.468597	-23.753546	1464.851074	1112.375732	-34.005444	1727.459229	1080.622314	-16.436577	1600.000366	568.617615	177.631744	1595.750000	445.674500	110.479759	1531.520752	268.911652	146.189102	1480.839600	75.309036	73.903107	1435.653931	63.177540	21.786507	1614.273560	42.724602	67.700867	1790.923218	612.895142	-193.936935	1803.663208	490.927002	-131.498489	1839.888184	289.425262	-180.243729	1869.731934	87.838135	-114.402954	1828.580811	58.303268	-60.358837	2006.541382	92.999443	-102.689156
516	5.15000000	1586.890991	1364.973389	126.859344	1591.392944	1368.865112	-188.927917	1509.119019	1395.574951	-22.001396	1662.800659	1310.738770	-17.989111	1850.238403	1161.383301	202.595062	1572.730347	1040.608154	-294.845123	2051.004761	1180.458618	117.508915	1678.280762	851.739532	-234.395508	1670.893188	963.866577	153.546722	1715.340332	957.570007	-133.843842	1474.944946	946.267822	47.174358	1498.865112	936.066101	-95.830864	1486.905029	941.166962	-24.328253	1470.583984	1111.093018	-34.369312	1733.166992	1080.276001	-17.465611	1606.193848	567.612244	177.037460	1600.580688	444.718689	110.010918	1534.242432	268.797974	145.887222	1481.180420	75.589775	73.829338	1436.026001	63.823589	21.668087	1614.353394	42.628220	67.812340	1799.595337	612.259583	-193.674057	1811.079956	490.122284	-130.848999	1845.438843	287.619537	-178.952377	1871.042847	85.827698	-113.007812	1829.054077	56.789459	-59.279572	2007.727051	89.324341	-99.652168
517	5.16000000	1592.025269	1364.176514	125.782272	1595.894287	1367.893433	-189.603683	1513.885986	1394.306641	-22.543930	1667.839966	1309.963745	-18.866196	1860.348999	1168.391602	199.275665	1577.747559	1039.691895	-295.636078	2060.044189	1191.798950	112.544563	1682.635071	851.064209	-235.558777	1677.275146	962.947083	152.708344	1721.484375	957.236694	-134.748383	1481.398315	944.858643	46.645412	1505.326538	934.733032	-96.544579	1493.362427	939.795837	-24.949583	1476.437988	1109.701294	-34.761402	1738.999268	1079.874390	-18.613253	1612.706421	566.539673	176.418304	1605.582031	443.714111	109.537064	1537.003174	268.697205	145.598907	1481.529663	75.915169	73.761421	1436.417847	64.547836	21.517611	1614.411499	42.535454	67.933479	1808.198975	611.264343	-193.324417	1818.197266	489.057129	-130.152298	1850.363281	285.557190	-177.536270	1871.574707	83.592537	-111.579483	1828.705322	55.129616	-58.168880	2008.097656	85.128296	-96.453377
518	5.17000000	1597.206543	1363.368408	124.635124	1600.398560	1366.859009	-190.363586	1518.697388	1392.994385	-23.153025	1672.946533	1309.165771	-19.834093	1870.089478	1175.198242	195.977966	1582.848389	1038.718872	-296.523834	2068.569580	1202.711975	107.569725	1687.521179	850.364502	-236.895889	1683.781860	961.931702	151.875427	1727.655762	956.911072	-135.925262	1487.966309	943.401978	46.039909	1511.891602	933.354248	-97.301346	1499.928955	938.378113	-25.630718	1482.394287	1108.226196	-35.193615	1744.971313	1079.403320	-19.873442	1619.439087	565.416382	175.761307	1610.662476	442.691528	109.052361	1539.730103	268.619720	145.311783	1481.886475	76.297882	73.690887	1436.820801	65.339279	21.343380	1614.452881	42.447010	68.055313	1816.511353	609.933533	-192.899948	1824.901123	487.764404	-129.440353	1854.654053	283.326019	-176.063095	1871.666748	81.269073	-110.168114	1827.901001	53.462578	-57.076099	2008.002930	80.563759	-93.196503
519	5.18000000	1602.441284	1362.562500	123.428154	1604.912231	1365.772217	-191.211838	1523.567749	1391.665039	-23.822668	1678.130249	1308.359375	-20.891109	1879.487915	1181.749268	192.726486	1588.021118	1037.688843	-297.497925	2076.606934	1213.172668	102.596981	1692.886963	849.621002	-238.389168	1690.413208	960.841187	151.028122	1733.851440	956.562378	-137.349548	1494.616699	941.921204	45.340775	1518.524048	931.956238	-98.106407	1506.570374	936.938721	-26.382816	1488.427368	1106.707764	-35.676636	1751.082275	1078.856812	-21.222837	1626.266113	564.271118	175.053619	1615.736450	441.683502	108.546471	1542.375244	268.586243	145.009033	1482.253052	76.759377	73.608200	1437.230103	66.197685	21.153250	1614.485840	42.364120	68.167877	1824.309937	608.336243	-192.437668	1831.115601	486.321808	-128.762299	1858.374268	281.052460	-174.622101	1871.691650	79.019089	-108.834488	1827.020508	51.951736	-56.069454	2007.823242	75.792778	-90.000992
520	5.19000000	1607.740845	1361.781494	122.170921	1609.447266	1364.651611	-192.152359	1528.512817	1390.356689	-24.552746	1683.396729	1307.566040	-22.036955	1888.570557	1187.991333	189.537216	1593.252197	1036.609375	-298.539673	2084.187866	1223.159180	97.642040	1698.608337	848.817139	-240.025215	1697.168579	959.700867	150.136490	1740.063599	956.161438	-138.980072	1501.315430	940.448303	44.538433	1525.191895	930.573364	-98.963661	1513.253662	935.510834	-27.212614	1494.512817	1105.198975	-36.216988	1757.310059	1078.236938	-22.616463	1633.053589	563.149658	174.287369	1620.739868	440.725800	108.007088	1544.924316	268.628601	144.669724	1482.635986	77.331154	73.503059	1437.650024	67.146469	20.943901	1614.520752	42.288830	68.261795	1831.396484	606.577087	-192.000534	1836.824829	484.852295	-128.180908	1861.682129	278.903503	-173.311401	1872.016113	77.005997	-107.642998	1826.421265	50.768993	-55.224670	2007.928955	70.986748	-86.992508
521	5.20000000	1613.120117	1361.055664	120.870903	1614.020630	1363.527100	-193.185730	1533.547729	1389.116455	-25.346722	1688.747314	1306.813599	-23.271168	1897.359253	1193.875977	186.416031	1598.530273	1035.498291	-299.628174	2091.351074	1232.651184	92.724916	1704.556702	847.954498	-241.786491	1704.046143	958.541809	149.165253	1746.284302	955.694336	-140.766022	1508.029663	939.022644	43.634064	1531.866821	929.257385	-99.874870	1519.948242	934.140015	-28.120403	1500.624146	1103.765137	-36.811954	1763.614502	1077.556519	-23.994873	1639.674561	562.112000	173.461548	1625.645142	439.858154	107.425201	1547.394897	268.783600	144.272232	1483.048584	78.051941	73.363594	1438.096924	68.234718	20.696905	1614.570068	42.224953	68.329399	1837.629028	604.782410	-191.672592	1842.096313	483.512573	-127.759781	1864.842651	277.070007	-172.219345	1872.932617	75.358910	-106.649826	1826.375366	50.062496	-54.609184	2008.611938	66.321320	-84.285416
522	5.21000000	1618.597046	1360.418457	119.532089	1618.650879	1362.436646	-194.307251	1538.684814	1387.991699	-26.209608	1694.179321	1306.134155	-24.591703	1905.864380	1199.360352	183.355194	1603.852295	1034.385864	-300.743561	2098.137573	1241.624939	87.866985	1710.639832	847.060364	-243.643547	1711.041382	957.403320	148.077240	1752.507080	955.172668	-142.650513	1514.735596	937.684937	42.641087	1538.520142	928.073853	-100.841873	1526.627869	932.879395	-29.100393	1506.730225	1102.476562	-37.445591	1769.948730	1076.848877	-25.308306	1646.019409	561.220947	172.581528	1630.465088	439.121094	106.800690	1549.829468	269.087158	143.801270	1483.509766	78.961784	73.176758	1438.596924	69.520615	20.385712	1614.647339	42.177509	68.365616	1842.962891	603.081116	-191.545731	1847.096069	482.465057	-127.542191	1868.215088	275.719757	-171.397888	1874.566895	74.136047	-105.887726	1826.995972	49.899273	-54.260334	2010.000122	61.957848	-81.960732
523	5.22000000	1624.190796	1359.899414	118.153976	1623.351929	1361.420288	-195.506409	1543.928345	1387.019287	-27.145824	1699.686157	1305.558105	-25.994427	1914.073486	1204.407471	180.329727	1609.220093	1033.311035	-301.866638	2104.594971	1250.052917	83.089926	1716.801636	846.177490	-245.562889	1718.147705	956.334229	146.836868	1758.729126	954.634766	-144.574310	1521.424194	936.474548	41.584324	1545.121216	927.081848	-101.868576	1533.272705	931.778198	-30.142126	1512.799927	1101.388916	-38.091450	1776.274902	1076.174561	-26.547163	1652.005615	560.530273	171.658279	1635.245239	438.548004	106.145042	1552.284790	269.568573	143.254959	1484.043823	80.095001	72.932259	1439.177368	71.048149	19.990023	1614.766235	42.150917	68.368935	1847.490723	601.580444	-191.697891	1852.078247	481.833527	-127.530586	1872.196655	274.921326	-170.833420	1876.820923	73.313225	-105.353760	1828.205566	50.223877	-54.163109	2012.010376	58.015797	-80.052368
524	5.23000000	1629.915894	1359.516968	116.732445	1628.127686	1360.514404	-196.768265	1549.270752	1386.217773	-28.154165	1705.257446	1305.108032	-27.472507	1921.954468	1208.985962	177.302902	1614.632935	1032.315186	-302.981018	2110.780029	1257.904846	78.416229	1723.002991	845.349701	-247.519478	1725.355591	955.390930	145.415512	1764.948608	954.135925	-146.483826	1528.100220	935.428955	40.496075	1551.638916	926.312866	-102.957878	1539.869568	930.870911	-31.230902	1518.815186	1100.521606	-38.726700	1782.572388	1075.615845	-27.756926	1657.589478	560.078430	170.706665	1640.049438	438.156647	105.480148	1554.822998	270.244873	142.648117	1484.675293	81.474304	72.628853	1439.859863	72.839874	19.509823	1614.938843	42.148109	68.341675	1851.458008	600.347839	-192.170898	1857.334839	481.659515	-127.680153	1877.118530	274.574646	-170.431030	1879.414795	72.812630	-105.008469	1829.786011	50.884335	-54.248131	2014.391235	54.564312	-78.552963
